<svg width="1280" height="968" viewBox="0 0 1280 968" fill="none" xmlns="http://www.w3.org/2000/svg">
<g style="mix-blend-mode:plus-lighter">
<path d="M-172 330.17L-50.0872 439.727M-50.0872 439.727L-172 561.29L177.969 507.762L191.018 534.776M-50.0872 439.727L-89.5117 211.609L697.159 561.29L1333.41 427.721L2.07447 870.95L52.4166 464.74L1266.69 806.917L221.032 925.466M191.018 534.776L300.488 761.394L732.945 493.255L1150.24 587.804L1333.41 379.196L1198.76 245.627L1033.18 1L1351 177.591L191.018 534.776ZM221.032 925.466L-145.313 967L293.209 765.896L-89.5117 587.804V814.421L598.295 747.887L959.787 946.489L1351 570.295L221.032 925.466Z" stroke="#8F8F8F" stroke-opacity="0.25" stroke-width="2"/>
</g>
</svg>
